<svg width="30" height="30" viewBox="0 0 30 30" fill="none" xmlns="http://www.w3.org/2000/svg">
<g clip-path="url(#clip0)">
<path d="M16.2003 7.00024H12.7999C9.51859 7.00024 6.84912 9.66971 6.84912 12.951V15.5013C6.84912 17.805 8.17771 19.8956 10.2496 20.879V23.719C10.2496 23.9656 10.558 24.0946 10.7333 23.9194L13.2006 21.4521H16.2003C19.4816 21.4521 22.1511 18.7826 22.1511 15.5013V12.951C22.1511 9.66971 19.4816 7.00024 16.2003 7.00024Z" fill="#665CAC"/>
<path d="M11.0997 20.8789C9.02781 19.8955 7.69922 17.805 7.69922 15.5013V12.951C7.69922 9.66971 10.3687 7.00024 13.65 7.00024H12.7999C9.51859 7.00024 6.84912 9.66971 6.84912 12.951V15.5013C6.84912 17.805 8.17771 19.8956 10.2496 20.879V23.719C10.2496 23.9656 10.558 24.0946 10.7333 23.9194L11.0997 23.5531V20.8789Z" fill="#523494"/>
<path d="M18.7781 17.5622L18.5233 16.1821C18.5022 16.068 18.4139 15.9784 18.3002 15.9556L16.2965 15.5549C16.2034 15.5364 16.1075 15.5654 16.0405 15.6324L15.2265 16.4465C13.8549 15.8319 13.0937 15.069 12.4239 13.6386L13.2353 12.8272C13.3023 12.7602 13.3314 12.6641 13.3128 12.5712L12.9121 10.5675C12.8894 10.4538 12.7997 10.3654 12.6857 10.3444L11.3055 10.0897C11.2677 10.0827 11.2288 10.0834 11.1913 10.092C10.8269 10.1748 10.4944 10.3584 10.2298 10.6231C9.77148 11.0814 9.59634 11.7501 9.7233 12.5569C9.93643 13.9118 10.6002 15.7974 11.8249 17.027L11.8417 17.0436C13.0703 18.2674 14.9559 18.9313 16.3108 19.1444C16.4815 19.1713 16.6459 19.1847 16.8036 19.1847C17.3911 19.1847 17.8833 18.9993 18.2448 18.638C18.5094 18.3733 18.6931 18.0408 18.7758 17.6764C18.7842 17.6389 18.785 17.6 18.7781 17.5622Z" fill="white"/>
<path d="M12.9585 13.104L13.2356 12.827L13.2359 12.8267L12.9585 13.104L12.9585 13.104Z" fill="#E5E5E5"/>
<path d="M16.0405 15.6319L15.7607 15.9116L15.7608 15.9117L16.0406 15.6319L16.0405 15.6319Z" fill="#E5E5E5"/>
<path d="M17.3379 18.6501C17.1803 18.6501 17.0159 18.6368 16.8452 18.6099C15.4903 18.3967 13.6047 17.7329 12.376 16.509L12.3593 16.4924C11.1346 15.2628 10.4708 13.3773 10.2577 12.0224C10.1551 11.3705 10.2499 10.8089 10.5318 10.3755C10.4239 10.4475 10.3226 10.5301 10.2298 10.6229C9.77148 11.0812 9.59634 11.7499 9.7233 12.5568C9.93643 13.9117 10.6002 15.7972 11.8249 17.0268L11.8417 17.0434C13.0703 18.2672 14.9559 18.9311 16.3108 19.1443C16.4815 19.1712 16.6459 19.1845 16.8036 19.1845C17.3911 19.1845 17.8833 18.9992 18.2448 18.6378C18.3375 18.545 18.4201 18.4437 18.4921 18.3358C18.1722 18.5439 17.7824 18.6501 17.3379 18.6501Z" fill="#E5E5E5"/>
<path d="M15.0666 11.8176C14.9101 11.8176 14.7832 11.9445 14.7832 12.101C14.7832 12.2575 14.9101 12.3843 15.0666 12.3843C15.6916 12.3843 16.2 12.8928 16.2 13.5178C16.2 13.6722 16.329 13.8012 16.4834 13.8012C16.6378 13.8012 16.7668 13.6722 16.7668 13.5178C16.7668 12.5803 16.0041 11.8176 15.0666 11.8176Z" fill="white"/>
<path d="M15.0668 10.6841C14.962 10.6841 14.8562 10.6899 14.7523 10.7013C14.5968 10.7185 14.4846 10.8585 14.5017 11.0141C14.5189 11.1697 14.6592 11.2816 14.8145 11.2647C14.8978 11.2555 14.9826 11.2508 15.0668 11.2508C16.3168 11.2508 17.3337 12.2678 17.3337 13.5178C17.3337 13.6019 17.329 13.6868 17.3198 13.7701C17.3029 13.9235 17.4169 14.066 17.5704 14.0829C17.7239 14.0998 17.8662 13.9858 17.8832 13.8323C17.8947 13.7284 17.9005 13.6226 17.9005 13.5178C17.9005 11.9553 16.6293 10.6841 15.0668 10.6841Z" fill="white"/>
<path d="M15.0673 9.55078C14.966 9.55078 14.8634 9.55463 14.7625 9.5623C14.6064 9.57412 14.4895 9.71026 14.5013 9.86628C14.5131 10.0223 14.6497 10.1393 14.8053 10.1275C14.892 10.1208 14.9802 10.1175 15.0673 10.1175C16.9423 10.1175 18.4677 11.6429 18.4677 13.518C18.4677 13.7833 18.4371 14.0473 18.3767 14.3029C18.3421 14.4493 18.4323 14.6015 18.5775 14.6413C18.7302 14.6831 18.8919 14.5873 18.9283 14.4332C18.9987 14.135 19.0344 13.8271 19.0344 13.518C19.0344 11.3304 17.2548 9.55078 15.0673 9.55078Z" fill="white"/>
</g>
<circle cx="15" cy="15.0002" r="14.75" stroke="#665CAC" stroke-width="0.5"/>
<defs>
<clipPath id="clip0">
<rect width="17" height="17" fill="white" transform="translate(6 7.00024)"/>
</clipPath>
</defs>
</svg>
