<svg width="82" height="22" viewBox="0 0 82 22" fill="none" xmlns="http://www.w3.org/2000/svg">
<path d="M21.061 21H15.931L14.446 17.247H7.048L5.644 21H0.622L8.641 1.884H13.123L21.061 21ZM13.177 13.548L10.801 6.987L8.371 13.548H13.177ZM30.1739 21H25.6919V0.587999H30.1739V21ZM41.7259 3.261C41.7259 3.945 41.4739 4.521 40.9699 4.989C40.4839 5.457 39.8899 5.691 39.1879 5.691C38.4859 5.691 37.8829 5.457 37.3789 4.989C36.8929 4.503 36.6499 3.927 36.6499 3.261C36.6499 2.613 36.8929 2.046 37.3789 1.56C37.8829 1.074 38.4859 0.830999 39.1879 0.830999C39.8899 0.830999 40.4839 1.074 40.9699 1.56C41.4739 2.028 41.7259 2.595 41.7259 3.261ZM41.4019 21H36.9739V7.554H41.4019V21ZM60.2452 9.066C61.6852 10.362 62.4052 12.081 62.4052 14.223C62.4052 16.365 61.6852 18.102 60.2452 19.434C58.8052 20.766 57.0322 21.432 54.9262 21.432C52.8382 21.432 51.0742 20.766 49.6342 19.434C48.1942 18.102 47.4742 16.365 47.4742 14.223C47.4742 12.081 48.1942 10.362 49.6342 9.066C51.0742 7.77 52.8382 7.122 54.9262 7.122C57.0322 7.122 58.8052 7.77 60.2452 9.066ZM58.1392 14.223C58.1392 13.305 57.8512 12.504 57.2752 11.82C56.6992 11.136 55.9162 10.794 54.9262 10.794C53.9362 10.794 53.1622 11.136 52.6042 11.82C52.0462 12.486 51.7672 13.287 51.7672 14.223C51.7672 15.159 52.0462 15.978 52.6042 16.68C53.1802 17.364 53.9632 17.706 54.9532 17.706C55.9432 17.706 56.7172 17.364 57.2752 16.68C57.8512 15.978 58.1392 15.159 58.1392 14.223ZM81.7327 21H77.2777V13.656C77.2777 11.766 76.6117 10.821 75.2797 10.821C74.5237 10.821 73.9387 11.1 73.5247 11.658C73.1107 12.216 72.9037 12.9 72.9037 13.71V21H68.4487V7.554H72.7417V9.417H72.7957C73.1197 8.787 73.6417 8.256 74.3617 7.824C75.0997 7.392 75.9187 7.176 76.8187 7.176C78.4927 7.176 79.7257 7.716 80.5177 8.796C81.3277 9.858 81.7327 11.154 81.7327 12.684V21Z" fill="#4299FF"/>
</svg>
