<svg width="18" height="18" viewBox="0 0 18 18" fill="none" xmlns="http://www.w3.org/2000/svg">
<g clip-path="url(#clip0)">
<path d="M16.2045 4.08425H12.3278V2.52212C12.3278 1.77831 11.7227 1.17322 10.9789 1.17322H7.02084C6.27703 1.17322 5.6719 1.77831 5.6719 2.52212V4.08425H1.79519C0.807629 4.08425 0.00415926 4.88772 0.00415926 5.87528C0.00415926 6.77233 -0.0877097 7.57795 0.592078 8.48392C0.976692 8.99651 1.50523 9.36216 2.12054 9.54129L8.09556 11.2809C8.68708 11.4532 9.31245 11.4532 9.90409 11.2809L15.8791 9.54129C16.4944 9.36212 17.023 8.99651 17.4076 8.48392C18.0904 7.57388 17.9955 6.75998 17.9955 5.87528C17.9955 4.88772 17.1921 4.08425 16.2045 4.08425ZM6.81446 2.52212C6.81446 2.40833 6.90704 2.31578 7.02084 2.31578H10.9789C11.0927 2.31578 11.1853 2.40836 11.1853 2.52212V4.08425H6.81446V2.52212Z" fill="black"/>
<path d="M16.1992 10.6383C9.75446 12.5148 9.8379 12.5527 9.00055 12.5527C8.16919 12.5527 8.36642 12.5497 1.80188 10.6384C1.10974 10.4368 0.496755 10.0653 0.00488281 9.55322V15.036C0.00488281 16.0235 0.808317 16.827 1.79592 16.827H16.2052C17.1928 16.827 17.9962 16.0235 17.9962 15.036V9.55322C17.5043 10.0653 16.8914 10.4368 16.1992 10.6383Z" fill="black"/>
</g>
<defs>
<clipPath id="clip0">
<rect width="18" height="18" fill="white"/>
</clipPath>
</defs>
</svg>
