<svg width="18" height="18" viewBox="0 0 18 18" fill="none" xmlns="http://www.w3.org/2000/svg">
<g clip-path="url(#clip0)">
<path d="M9.00087 8.80318C11.0022 8.80318 12.6247 6.83254 12.6247 4.40162C12.6247 1.97064 12.092 0 9.00087 0C5.90975 0 5.37695 1.97064 5.37695 4.40162C5.37695 6.83254 6.99947 8.80318 9.00087 8.80318Z" fill="black"/>
<path d="M2.156 15.525C2.15537 15.3747 2.15474 15.4827 2.156 15.525V15.525Z" fill="black"/>
<path d="M15.8447 15.6409C15.8467 15.6 15.8454 15.3567 15.8447 15.6409V15.6409Z" fill="black"/>
<path d="M15.8376 15.3462C15.7705 11.1115 15.2175 9.90481 10.9852 9.14099C10.9852 9.14099 10.3895 9.90013 9.00093 9.90013C7.61236 9.90013 7.01651 9.14099 7.01651 9.14099C2.83048 9.89648 2.24378 11.0852 2.16664 15.2086C2.16031 15.5453 2.15738 15.563 2.15625 15.524C2.15651 15.5972 2.15682 15.7327 2.15682 15.9689C2.15682 15.9689 3.1644 18.0001 9.00093 18.0001C14.8374 18.0001 15.845 15.9689 15.845 15.9689C15.845 15.8171 15.8451 15.7116 15.8453 15.6398C15.8442 15.6639 15.8419 15.6171 15.8376 15.3462Z" fill="black"/>
</g>
<defs>
<clipPath id="clip0">
<rect width="18" height="18" fill="white"/>
</clipPath>
</defs>
</svg>
