<svg width="18" height="17" viewBox="0 0 18 17" fill="none" xmlns="http://www.w3.org/2000/svg">
<g clip-path="url(#clip0)">
<path d="M9.00087 8.31412C11.0022 8.31412 12.6247 6.45296 12.6247 4.15708C12.6247 1.86116 12.092 0 9.00087 0C5.90975 0 5.37695 1.86116 5.37695 4.15708C5.37695 6.45296 6.99947 8.31412 9.00087 8.31412Z" fill="black"/>
<path d="M2.156 14.6626C2.15537 14.5206 2.15474 14.6226 2.156 14.6626V14.6626Z" fill="black"/>
<path d="M15.8447 14.7721C15.8467 14.7334 15.8454 14.5036 15.8447 14.7721V14.7721Z" fill="black"/>
<path d="M15.8376 14.4935C15.7705 10.4941 15.2175 9.35444 10.9852 8.63306C10.9852 8.63306 10.3895 9.35002 9.00093 9.35002C7.61236 9.35002 7.01651 8.63306 7.01651 8.63306C2.83048 9.34657 2.24378 10.4693 2.16664 14.3636C2.16031 14.6816 2.15738 14.6983 2.15625 14.6614C2.15651 14.7306 2.15682 14.8585 2.15682 15.0816C2.15682 15.0816 3.1644 17 9.00093 17C14.8374 17 15.845 15.0816 15.845 15.0816C15.845 14.9383 15.8451 14.8386 15.8453 14.7708C15.8442 14.7936 15.8419 14.7494 15.8376 14.4935Z" fill="black"/>
</g>
<defs>
<clipPath id="clip0">
<rect width="18" height="17" fill="white"/>
</clipPath>
</defs>
</svg>
