<svg width="101" height="26" viewBox="0 0 101 26" fill="none" xmlns="http://www.w3.org/2000/svg">
<path d="M15.7568 14.6777L12.7832 6.62842L9.79248 14.6777H15.7568ZM17.5 19.2236H8.04932L5.94727 25H0.341797L9.98047 0.493164H15.5688L25.2075 25H19.6021L17.5 19.2236ZM36.7732 0.493164V25H32.0394V0.493164H36.7732ZM50.6119 7.8418V25H45.878V7.8418H50.6119ZM50.2018 1.04004C50.7031 1.51855 50.9537 2.15658 50.9537 2.9541C50.9537 3.74023 50.7031 4.37256 50.2018 4.85107C49.7005 5.32959 49.0169 5.56885 48.151 5.56885C47.3535 5.56885 46.7154 5.32959 46.2369 4.85107C45.7698 4.37256 45.5362 3.74023 45.5362 2.9541C45.5362 2.15658 45.7755 1.51855 46.254 1.04004C46.7325 0.561523 47.3648 0.322266 48.151 0.322266C49.0169 0.322266 49.7005 0.561523 50.2018 1.04004ZM64.6386 13.1909C63.8069 14.0682 63.391 15.1506 63.391 16.438C63.391 17.714 63.8069 18.7907 64.6386 19.668C65.4703 20.5339 66.4558 20.9668 67.5951 20.9668C68.7344 20.9668 69.72 20.5339 70.5517 19.668C71.3834 18.7907 71.7992 17.714 71.7992 16.438C71.7992 15.1506 71.3834 14.0682 70.5517 13.1909C69.72 12.3136 68.7344 11.875 67.5951 11.875C66.4558 11.875 65.4703 12.3136 64.6386 13.1909ZM73.9696 10.1831C75.7812 11.9604 76.6869 14.0397 76.6869 16.4209C76.6869 18.8021 75.7812 20.887 73.9696 22.6758C72.1695 24.4531 70.0447 25.3418 67.5951 25.3418C65.1456 25.3418 63.015 24.4531 61.2035 22.6758C59.392 20.887 58.4862 18.8021 58.4862 16.4209C58.4862 14.0397 59.392 11.9604 61.2035 10.1831C63.015 8.39437 65.1456 7.5 67.5951 7.5C70.0447 7.5 72.1695 8.39437 73.9696 10.1831ZM89.1071 7.8418V9.94385C89.2439 9.76156 89.4375 9.53939 89.6882 9.27734C89.9388 9.00391 90.4857 8.63932 91.3288 8.18359C92.1833 7.72786 93.0777 7.5 94.0119 7.5C95.9716 7.5 97.5666 8.1779 98.7971 9.53369C100.039 10.8895 100.66 12.7181 100.66 15.0195V25H95.9431V15.5493C95.9431 14.5011 95.6298 13.658 95.0031 13.02C94.3879 12.3706 93.5904 12.0459 92.6105 12.0459C91.5396 12.0459 90.6851 12.3991 90.0471 13.1055C89.4204 13.8005 89.1071 14.7917 89.1071 16.0791V25H84.3903V7.8418H89.1071Z" fill="#4299FF"/>
</svg>
