<svg width="30" height="30" viewBox="0 0 30 30" fill="none" xmlns="http://www.w3.org/2000/svg">
<circle cx="15" cy="15.0002" r="14.75" stroke="#4CAF50" stroke-width="0.5"/>
<g clip-path="url(#clip0)">
<path d="M14.9957 7.00562C10.58 7.00656 7.00119 10.5869 7.00213 15.0026C7.00244 16.5316 7.44121 18.0284 8.26635 19.3157L7.02243 22.5431C6.95619 22.7148 7.04164 22.9076 7.21329 22.9739C7.25167 22.9887 7.29243 22.9963 7.33356 22.9962C7.37172 22.9964 7.40961 22.9898 7.44549 22.9769L10.7769 21.7876C14.525 24.122 19.4559 22.9759 21.7903 19.2277C24.1247 15.4795 22.9786 10.5486 19.2304 8.21425C17.9598 7.4229 16.4926 7.00415 14.9957 7.00562Z" fill="#4CAF50"/>
<path d="M18.8075 16.3663C18.8075 16.3663 17.9913 15.9666 17.4803 15.7001C16.902 15.4023 16.2224 15.9599 15.9026 16.2771C15.4048 16.0859 14.9502 15.7973 14.5654 15.4282C14.1962 15.0434 13.9077 14.5888 13.7165 14.091C14.0337 13.7706 14.59 13.0916 14.2935 12.5133C14.0303 12.0016 13.6273 11.1861 13.6273 11.1854C13.5707 11.0732 13.4558 11.0023 13.3301 11.0022H12.6638C11.6935 11.1698 10.988 12.0164 10.9982 13.001C10.9982 14.0471 12.2501 16.0566 13.0943 16.9014C13.9384 17.7462 15.9479 18.9975 16.9946 18.9975C17.9792 19.0076 18.8258 18.3021 18.9934 17.3318V16.6655C18.9935 16.5385 18.9214 16.4225 18.8075 16.3663Z" fill="#FAFAFA"/>
</g>
<defs>
<clipPath id="clip0">
<rect width="16" height="16" fill="white" transform="translate(7 7.00024)"/>
</clipPath>
</defs>
</svg>
