<?xml version="1.0" encoding="utf-8"?><svg width="117" height="139" xmlns="http://www.w3.org/2000/svg" viewBox="0 0 117 139"><g opacity=".6"><g filter="url(#ofilter0_f)"><path d="M107 129l-30.333-5H42l65 5z"/></g><g opacity=".4" filter="url(#ofilter1_f)"><path d="M11 123c0 2.761 20.819 5 46.5 5s46.5-2.239 46.5-5-20.819-5-46.5-5-46.5 2.239-46.5 5z"/></g></g><path d="M106 131.5L81.5 93h-28l52.5 38.5z"/><circle r="52.5" transform="matrix(-1 0 0 1 52.5 52.5)"/><path d="M57.231 68h-6.65l-1.925-4.865h-9.59L37.246 68h-6.51l10.395-24.78h5.81L57.231 68zm-10.22-9.66l-3.08-8.505-3.15 8.505h6.23zM67.47 68h-5.81V41.54h5.81V68z"/><defs><filter id="ofilter0_f" x="32" y="114" width="85" height="25" filterUnits="userSpaceOnUse" color-interpolation-filters="sRGB"><feFlood flood-opacity="0" result="BackgroundImageFix"/><feBlend in="SourceGraphic" in2="BackgroundImageFix" result="shape"/><feGaussianBlur stdDeviation="5" result="effect1_foregroundBlur"/></filter><filter id="ofilter1_f" x="1" y="108" width="113" height="30" filterUnits="userSpaceOnUse" color-interpolation-filters="sRGB"><feFlood flood-opacity="0" result="BackgroundImageFix"/><feBlend in="SourceGraphic" in2="BackgroundImageFix" result="shape"/><feGaussianBlur stdDeviation="5" result="effect1_foregroundBlur"/></filter></defs></svg>