<?xml version="1.0" encoding="utf-8"?><svg width="30" height="30" xmlns="http://www.w3.org/2000/svg" viewBox="0 0 30 30"><g clip-path="url(#sclip0)"><path d="M16.2 7h-3.4a5.957 5.957 0 00-5.95 5.951v2.55a5.953 5.953 0 003.4 5.378v2.84c0 .247.308.376.483.2l2.468-2.467h3c3.28 0 5.95-2.67 5.95-5.95V12.95c0-3.281-2.67-5.95-5.95-5.95z"/><path d="M11.1 20.879A5.953 5.953 0 017.7 15.5v-2.55c0-3.281 2.669-5.95 5.95-5.95h-.85a5.957 5.957 0 00-5.95 5.95v2.55a5.953 5.953 0 003.4 5.378v2.84c0 .247.308.376.483.2l.367-.366V20.88z"/><path d="M18.778 17.562l-.255-1.38a.283.283 0 00-.223-.226l-2.003-.401a.284.284 0 00-.256.077l-.815.815c-1.371-.615-2.132-1.378-2.802-2.808l.811-.812a.283.283 0 00.078-.256l-.4-2.003a.283.283 0 00-.227-.224l-1.38-.254a.282.282 0 00-.115.002 1.977 1.977 0 00-.961.531c-.459.458-.634 1.127-.507 1.934.213 1.355.877 3.24 2.102 4.47l.017.017c1.228 1.223 3.114 1.887 4.469 2.1.17.027.335.04.493.04.587 0 1.08-.185 1.44-.546.265-.265.45-.597.532-.962a.287.287 0 00.002-.114zM12.959 13.104l.277-.277-.277.277zM16.04 15.632l-.28.28.28-.28z"/><path d="M17.338 18.65c-.158 0-.322-.013-.493-.04-1.355-.213-3.24-.877-4.469-2.101l-.017-.017c-1.224-1.23-1.888-3.115-2.101-4.47-.103-.652-.008-1.213.274-1.646-.108.072-.21.154-.302.247-.459.458-.634 1.127-.507 1.934.213 1.355.877 3.24 2.102 4.47l.017.016c1.228 1.224 3.114 1.888 4.469 2.101.17.027.335.04.493.04.587 0 1.08-.185 1.44-.546a1.99 1.99 0 00.248-.302c-.32.208-.71.314-1.154.314zM15.067 11.818a.283.283 0 000 .566c.625 0 1.133.509 1.133 1.134 0 .154.129.283.283.283a.286.286 0 00.284-.283c0-.938-.763-1.7-1.7-1.7z"/><path d="M15.067 10.684c-.105 0-.21.006-.315.017a.284.284 0 00.063.564 2.27 2.27 0 012.505 2.505.286.286 0 00.25.313.286.286 0 00.313-.25 2.837 2.837 0 00-2.816-3.148z"/><path d="M15.067 9.55a4.04 4.04 0 00-.305.012.283.283 0 00.043.566 3.404 3.404 0 013.571 4.175.286.286 0 00.201.338.286.286 0 00.351-.208 3.972 3.972 0 00-3.861-4.882z"/></g><circle cx="15" cy="15" r="14.75"/><defs><clipPath id="sclip0"><path transform="translate(6 7)" d="M0 0h17v17H0z"/></clipPath></defs></svg>