<?xml version="1.0" encoding="utf-8"?><svg width="30" height="30" xmlns="http://www.w3.org/2000/svg" viewBox="0 0 30 30"><circle cx="15" cy="15" r="14.75"/><g clip-path="url(#pclip0)"><path d="M12.278 18.12l-.264 3.723c.378 0 .542-.162.739-.358l1.775-1.696 3.679 2.694c.674.376 1.15.178 1.332-.62l2.414-11.316c.215-.997-.36-1.388-1.017-1.143L6.743 14.838c-.969.376-.954.916-.165 1.16l3.629 1.13 8.428-5.274c.397-.263.758-.118.461.145l-6.818 6.122z"/></g><defs><clipPath id="pclip0"><path transform="translate(6 8)" d="M0 0h16v16H0z"/></clipPath></defs></svg>