<?xml version="1.0" encoding="utf-8"?><svg width="82" height="22" xmlns="http://www.w3.org/2000/svg" viewBox="0 0 82 22"><path d="M21.061 21h-5.13l-1.485-3.753H7.048L5.644 21H.622L8.641 1.884h4.482L21.061 21zm-7.884-7.452l-2.376-6.561-2.43 6.561h4.806zM30.174 21h-4.482V.588h4.482V21zM41.726 3.261c0 .684-.252 1.26-.756 1.728-.486.468-1.08.702-1.782.702a2.566 2.566 0 01-1.81-.702c-.485-.486-.728-1.062-.728-1.728 0-.648.243-1.215.729-1.701a2.515 2.515 0 011.809-.729c.702 0 1.296.243 1.782.729.504.468.756 1.035.756 1.701zM41.402 21h-4.428V7.554h4.428V21zM60.245 9.066c1.44 1.296 2.16 3.015 2.16 5.157s-.72 3.879-2.16 5.211c-1.44 1.332-3.213 1.998-5.319 1.998-2.088 0-3.852-.666-5.292-1.998-1.44-1.332-2.16-3.069-2.16-5.211 0-2.142.72-3.861 2.16-5.157 1.44-1.296 3.204-1.944 5.292-1.944 2.106 0 3.88.648 5.32 1.944zm-2.106 5.157c0-.918-.288-1.719-.864-2.403-.576-.684-1.359-1.026-2.349-1.026-.99 0-1.764.342-2.322 1.026-.558.666-.837 1.467-.837 2.403 0 .936.28 1.755.837 2.457.576.684 1.36 1.026 2.35 1.026s1.763-.342 2.321-1.026c.576-.702.864-1.521.864-2.457zM81.733 21h-4.455v-7.344c0-1.89-.666-2.835-1.998-2.835-.756 0-1.341.279-1.755.837-.414.558-.621 1.242-.621 2.052V21h-4.455V7.554h4.293v1.863h.054c.324-.63.846-1.161 1.566-1.593a4.774 4.774 0 012.457-.648c1.674 0 2.907.54 3.699 1.62.81 1.062 1.215 2.358 1.215 3.888V21z"/></svg>