<?xml version="1.0" encoding="utf-8"?><svg width="101" height="26" xmlns="http://www.w3.org/2000/svg" viewBox="0 0 101 26"><path d="M15.757 14.678l-2.974-8.05-2.99 8.05h5.964zm1.743 4.546H8.05L5.946 25H.342L9.98.493h5.589L25.207 25h-5.605L17.5 19.224zM36.773.494V25H32.04V.493h4.734zm13.839 7.348V25h-4.734V7.842h4.734zm-.41-6.802c.501.479.752 1.117.752 1.914 0 .786-.25 1.419-.752 1.897-.502.479-1.185.718-2.051.718-.798 0-1.436-.24-1.914-.718-.467-.478-.7-1.11-.7-1.897 0-.797.239-1.435.717-1.914.479-.478 1.11-.718 1.897-.718.866 0 1.55.24 2.05.718zm14.437 12.15c-.832.878-1.248 1.96-1.248 3.248 0 1.276.416 2.353 1.248 3.23.831.866 1.817 1.299 2.956 1.299 1.14 0 2.125-.433 2.957-1.299.831-.877 1.247-1.954 1.247-3.23 0-1.287-.416-2.37-1.247-3.247-.832-.877-1.818-1.316-2.957-1.316-1.14 0-2.125.439-2.956 1.316zm9.33-3.007c1.812 1.777 2.718 3.857 2.718 6.238 0 2.381-.906 4.466-2.717 6.255-1.8 1.777-3.925 2.666-6.375 2.666s-4.58-.889-6.392-2.666c-1.811-1.789-2.717-3.874-2.717-6.255s.906-4.46 2.718-6.238C63.014 8.394 65.145 7.5 67.594 7.5c2.45 0 4.575.894 6.375 2.683zm15.138-2.341v2.102a7.7 7.7 0 01.581-.667c.25-.273.798-.638 1.64-1.093a5.626 5.626 0 012.684-.684c1.96 0 3.555.678 4.785 2.034 1.242 1.355 1.863 3.184 1.863 5.486V25h-4.717v-9.45c0-1.049-.313-1.892-.94-2.53-.615-.65-1.413-.974-2.392-.974-1.071 0-1.926.353-2.564 1.06-.627.694-.94 1.686-.94 2.973V25H84.39V7.842h4.717z"/></svg>