<?xml version="1.0" encoding="utf-8"?><svg width="18" height="18" xmlns="http://www.w3.org/2000/svg" viewBox="0 0 18 18"><g clip-path="url(#rclip0)"><path d="M9 8.803c2.002 0 3.625-1.97 3.625-4.401S12.092 0 9 0 5.377 1.97 5.377 4.402c0 2.43 1.622 4.401 3.624 4.401zM2.156 15.525c0-.15-.001-.042 0 0zM15.845 15.64c.002-.04 0-.283 0 0zM15.838 15.346c-.067-4.235-.62-5.441-4.853-6.205 0 0-.595.76-1.984.76s-1.984-.76-1.984-.76c-4.187.755-4.773 1.944-4.85 6.068-.007.336-.01.354-.01.315v.445S3.164 18 9 18c5.836 0 6.844-2.031 6.844-2.031v-.33a2.746 2.746 0 01-.007-.293z"/></g><defs><clipPath id="rclip0"><path d="M0 0h18v18H0z"/></clipPath></defs></svg>