<?xml version="1.0" encoding="utf-8"?><svg width="18" height="17" xmlns="http://www.w3.org/2000/svg" viewBox="0 0 18 17"><g clip-path="url(#qclip0)"><path d="M9 8.314c2.002 0 3.625-1.861 3.625-4.157C12.625 1.861 12.092 0 9 0S5.377 1.861 5.377 4.157c0 2.296 1.622 4.157 3.624 4.157zM2.156 14.663c0-.142-.001-.04 0 0zM15.845 14.772c.002-.039 0-.268 0 0zM15.838 14.493c-.067-3.999-.62-5.139-4.853-5.86 0 0-.595.717-1.984.717s-1.984-.717-1.984-.717c-4.187.714-4.773 1.836-4.85 5.73-.007.319-.01.335-.01.298v.42S3.164 17 9 17c5.836 0 6.844-1.918 6.844-1.918v-.311a2.447 2.447 0 01-.007-.278z"/></g><defs><clipPath id="qclip0"><path d="M0 0h18v17H0z"/></clipPath></defs></svg>