<?xml version="1.0" encoding="utf-8"?><svg width="18" height="18" xmlns="http://www.w3.org/2000/svg" viewBox="0 0 18 18"><g clip-path="url(#dclip0)"><path d="M16.204 4.084h-3.876V2.522a1.35 1.35 0 00-1.35-1.349H7.022a1.35 1.35 0 00-1.35 1.35v1.561H1.796c-.987 0-1.79.804-1.79 1.791 0 .897-.093 1.703.587 2.609.385.513.913.878 1.529 1.057l5.975 1.74a3.228 3.228 0 001.808 0l5.975-1.74a2.916 2.916 0 001.529-1.057c.682-.91.587-1.724.587-2.609 0-.987-.803-1.79-1.79-1.79zm-9.39-1.562c0-.114.093-.206.207-.206h3.958c.114 0 .206.092.206.206v1.562h-4.37V2.522z"/><path d="M16.2 10.638c-6.446 1.877-6.362 1.915-7.2 1.915-.83 0-.634-.003-7.198-1.915A4.047 4.047 0 01.005 9.553v5.483c0 .987.803 1.791 1.79 1.791h14.41c.988 0 1.791-.804 1.791-1.791V9.553a4.046 4.046 0 01-1.797 1.085z"/></g><defs><clipPath id="dclip0"><path d="M0 0h18v18H0z"/></clipPath></defs></svg>