<?xml version="1.0" encoding="utf-8"?><svg viewBox="0 0 166 166" xmlns="http://www.w3.org/2000/svg" xmlns:xlink="http://www.w3.org/1999/xlink"><style>:root>svg{display:none}:root>svg:target{display:block}</style><svg viewBox="0 0 16 8" id="icon-arrow-left" xmlns="http://www.w3.org/2000/svg"><path d="M.646 4.354a.5.5 0 010-.707L3.828.465a.5.5 0 11.708.707L1.707 4 4.536 6.83a.5.5 0 01-.708.707L.646 4.354zM16 4.5H1v-1h15v1z"/></svg><svg viewBox="0 0 16 8" id="icon-arrow-right" xmlns="http://www.w3.org/2000/svg"><path d="M15.354 4.354a.5.5 0 000-.707L12.172.465a.5.5 0 10-.708.707L14.293 4 11.464 6.83a.5.5 0 10.708.707l3.182-3.182zM0 4.5h15v-1H0v1z"/></svg><svg viewBox="0 0 15 16" id="icon-button" xmlns="http://www.w3.org/2000/svg"><g clip-path="url(#cclip0)"><path d="M10.58 5.737a3.084 3.084 0 00-3.08-3.08 3.084 3.084 0 00-3.08 3.08 3.084 3.084 0 003.08 3.08 3.084 3.084 0 003.08-3.08zm-5.722 0A2.645 2.645 0 017.5 3.096a2.645 2.645 0 012.642 2.641A2.645 2.645 0 017.5 8.38a2.645 2.645 0 01-2.642-2.642z"/><path d="M7.604 7.054l.251-.272a.22.22 0 00-.322-.297l-.251.272a.248.248 0 01-.175.079h-.006a.245.245 0 01-.171-.07l-.776-.749a.247.247 0 01.343-.354l.433.418a.219.219 0 00.313-.009l1.25-1.354a.245.245 0 01.35-.014c.099.092.105.248.013.348l-.63.682a.22.22 0 10.323.297l.63-.681a.686.686 0 00-1.007-.93L7.073 5.61l-.272-.263a.686.686 0 00-.952.985l.776.75a.682.682 0 00.98-.028z"/><path d="M15 5.733a.219.219 0 00-.122-.192l-1.917-.954V2.553a.22.22 0 00-.055-.145L11.303.588a.22.22 0 00-.165-.073H2.596a.558.558 0 00-.557.557v3.515l-1.92.955a.223.223 0 00-.12.19l.001 5.448a.22.22 0 10.439 0V6.222l1.675 1.472 3.959 3.48L.439 14.86v-2.676a.22.22 0 10-.439 0v3.081c0 .118.1.22.22.22h14.56a.221.221 0 00.22-.22V5.733zM2.039 7.045L.609 5.788l1.43-.71v1.967zm10.922-1.968l1.43.711-1.43 1.257V5.077zm-1.603-3.763l.682.775.216.245h-.825a.073.073 0 01-.073-.074v-.946zM2.478 7.43V1.072c0-.065.053-.119.118-.119h8.323V2.26c0 .283.23.512.512.512h1.091V7.43l-3.381 2.972-.595.523-.688-.45a.654.654 0 00-.716 0l-.688.45L2.478 7.43zM.955 15.047l6.427-4.206a.216.216 0 01.236 0l6.427 4.206H.955zm13.606-.186l-5.634-3.687.161-.142 5.473-4.81v8.639z"/></g><defs><clipPath id="cclip0"><path transform="translate(0 .5)" d="M0 0h15v15H0z"/></clipPath></defs></svg><svg viewBox="0 0 18 18" id="icon-case" xmlns="http://www.w3.org/2000/svg"><g clip-path="url(#dclip0)"><path d="M16.204 4.084h-3.876V2.522a1.35 1.35 0 00-1.35-1.349H7.022a1.35 1.35 0 00-1.35 1.35v1.561H1.796c-.987 0-1.79.804-1.79 1.791 0 .897-.093 1.703.587 2.609.385.513.913.878 1.529 1.057l5.975 1.74a3.228 3.228 0 001.808 0l5.975-1.74a2.916 2.916 0 001.529-1.057c.682-.91.587-1.724.587-2.609 0-.987-.803-1.79-1.79-1.79zm-9.39-1.562c0-.114.093-.206.207-.206h3.958c.114 0 .206.092.206.206v1.562h-4.37V2.522z"/><path d="M16.2 10.638c-6.446 1.877-6.362 1.915-7.2 1.915-.83 0-.634-.003-7.198-1.915A4.047 4.047 0 01.005 9.553v5.483c0 .987.803 1.791 1.79 1.791h14.41c.988 0 1.791-.804 1.791-1.791V9.553a4.046 4.046 0 01-1.797 1.085z"/></g><defs><clipPath id="dclip0"><path d="M0 0h18v18H0z"/></clipPath></defs></svg><svg viewBox="0 0 166 166" id="icon-check" xmlns="http://www.w3.org/2000/svg"><circle cx="83" cy="83" r="52"/><circle opacity=".3" cx="83" cy="83" r="66.5"/><circle opacity=".1" cx="83" cy="83" r="82.5"/><path d="M74.954 96.915L63.74 85.699 60 89.438l14.954 14.954L107 72.347l-3.739-3.74-28.306 28.308z"/></svg><svg viewBox="0 0 20 20" id="icon-close" xmlns="http://www.w3.org/2000/svg"><g clip-path="url(#fclip0)"><path d="M11.105 10l8.666-8.666A.781.781 0 0018.666.23L10 8.896 1.334.23A.781.781 0 10.229 1.334l8.666 8.667L.23 18.667a.781.781 0 101.105 1.105L10 11.106l8.666 8.666a.778.778 0 001.105 0 .781.781 0 000-1.105l-8.666-8.666z"/></g><defs><clipPath id="fclip0"><path d="M0 0h20v20H0z"/></clipPath></defs></svg><svg viewBox="0 0 10 10" id="icon-ellipse" xmlns="http://www.w3.org/2000/svg"><circle cx="5" cy="5" r="5" transform="rotate(-90 5 5)"/></svg><svg viewBox="0 0 18 18" id="icon-ellipse-active" xmlns="http://www.w3.org/2000/svg"><circle cx="9" cy="9" r="8.5" transform="rotate(-90 9 9)"/></svg><svg viewBox="0 0 16 16" id="icon-email" xmlns="http://www.w3.org/2000/svg"><path d="M8 0C3.589 0 0 3.589 0 8s3.589 8 8 8c1.407 0 2.79-.37 4.001-1.07L11 13.197A5.997 5.997 0 018 14c-3.309 0-6-2.691-6-6s2.691-6 6-6 6 2.691 6 6v.871C14 9.525 13.58 10 13 10c-.551 0-1-.449-1-1V5h-1.382A3.966 3.966 0 008 4C5.794 4 4 5.794 4 8s1.794 4 4 4c1.05 0 2-.415 2.714-1.08A2.981 2.981 0 0013 12c1.682 0 3-1.374 3-3.129V8c0-4.411-3.589-8-8-8zm0 10c-1.103 0-2-.897-2-2s.897-2 2-2 2 .897 2 2-.897 2-2 2z"/></svg><svg viewBox="0 0 17 1" id="icon-line" xmlns="http://www.w3.org/2000/svg"><path opacity=".2" d="M0 .5h17"/></svg><svg viewBox="0 0 82 22" id="icon-logo-alion" xmlns="http://www.w3.org/2000/svg"><path d="M21.061 21h-5.13l-1.485-3.753H7.048L5.644 21H.622L8.641 1.884h4.482L21.061 21zm-7.884-7.452l-2.376-6.561-2.43 6.561h4.806zM30.174 21h-4.482V.588h4.482V21zM41.726 3.261c0 .684-.252 1.26-.756 1.728-.486.468-1.08.702-1.782.702a2.566 2.566 0 01-1.81-.702c-.485-.486-.728-1.062-.728-1.728 0-.648.243-1.215.729-1.701a2.515 2.515 0 011.809-.729c.702 0 1.296.243 1.782.729.504.468.756 1.035.756 1.701zM41.402 21h-4.428V7.554h4.428V21zM60.245 9.066c1.44 1.296 2.16 3.015 2.16 5.157s-.72 3.879-2.16 5.211c-1.44 1.332-3.213 1.998-5.319 1.998-2.088 0-3.852-.666-5.292-1.998-1.44-1.332-2.16-3.069-2.16-5.211 0-2.142.72-3.861 2.16-5.157 1.44-1.296 3.204-1.944 5.292-1.944 2.106 0 3.88.648 5.32 1.944zm-2.106 5.157c0-.918-.288-1.719-.864-2.403-.576-.684-1.359-1.026-2.349-1.026-.99 0-1.764.342-2.322 1.026-.558.666-.837 1.467-.837 2.403 0 .936.28 1.755.837 2.457.576.684 1.36 1.026 2.35 1.026s1.763-.342 2.321-1.026c.576-.702.864-1.521.864-2.457zM81.733 21h-4.455v-7.344c0-1.89-.666-2.835-1.998-2.835-.756 0-1.341.279-1.755.837-.414.558-.621 1.242-.621 2.052V21h-4.455V7.554h4.293v1.863h.054c.324-.63.846-1.161 1.566-1.593a4.774 4.774 0 012.457-.648c1.674 0 2.907.54 3.699 1.62.81 1.062 1.215 2.358 1.215 3.888V21z"/></svg><svg viewBox="0 0 101 26" id="icon-logo-alion-tablet" xmlns="http://www.w3.org/2000/svg"><path d="M15.757 14.678l-2.974-8.05-2.99 8.05h5.964zm1.743 4.546H8.05L5.946 25H.342L9.98.493h5.589L25.207 25h-5.605L17.5 19.224zM36.773.494V25H32.04V.493h4.734zm13.839 7.348V25h-4.734V7.842h4.734zm-.41-6.802c.501.479.752 1.117.752 1.914 0 .786-.25 1.419-.752 1.897-.502.479-1.185.718-2.051.718-.798 0-1.436-.24-1.914-.718-.467-.478-.7-1.11-.7-1.897 0-.797.239-1.435.717-1.914.479-.478 1.11-.718 1.897-.718.866 0 1.55.24 2.05.718zm14.437 12.15c-.832.878-1.248 1.96-1.248 3.248 0 1.276.416 2.353 1.248 3.23.831.866 1.817 1.299 2.956 1.299 1.14 0 2.125-.433 2.957-1.299.831-.877 1.247-1.954 1.247-3.23 0-1.287-.416-2.37-1.247-3.247-.832-.877-1.818-1.316-2.957-1.316-1.14 0-2.125.439-2.956 1.316zm9.33-3.007c1.812 1.777 2.718 3.857 2.718 6.238 0 2.381-.906 4.466-2.717 6.255-1.8 1.777-3.925 2.666-6.375 2.666s-4.58-.889-6.392-2.666c-1.811-1.789-2.717-3.874-2.717-6.255s.906-4.46 2.718-6.238C63.014 8.394 65.145 7.5 67.594 7.5c2.45 0 4.575.894 6.375 2.683zm15.138-2.341v2.102a7.7 7.7 0 01.581-.667c.25-.273.798-.638 1.64-1.093a5.626 5.626 0 012.684-.684c1.96 0 3.555.678 4.785 2.034 1.242 1.355 1.863 3.184 1.863 5.486V25h-4.717v-9.45c0-1.049-.313-1.892-.94-2.53-.615-.65-1.413-.974-2.392-.974-1.071 0-1.926.353-2.564 1.06-.627.694-.94 1.686-.94 2.973V25H84.39V7.842h4.717z"/></svg><svg viewBox="0 0 10 10" id="icon-marker-list" xmlns="http://www.w3.org/2000/svg"><circle opacity=".4" cx="5" cy="5" r="5"/><circle cx="5" cy="5" r="3.182"/></svg><svg viewBox="0 0 16 16" id="icon-phone" xmlns="http://www.w3.org/2000/svg"><g clip-path="url(#nclip0)"><path d="M15.565 11.742L13.333 9.51c-.798-.798-2.154-.479-2.473.558-.239.718-1.036 1.116-1.754.957-1.595-.399-3.748-2.472-4.147-4.147-.239-.718.24-1.515.957-1.754 1.037-.32 1.356-1.675.558-2.472L4.242.419c-.638-.559-1.595-.559-2.154 0L.573 1.934c-1.515 1.595.16 5.821 3.908 9.57 3.748 3.747 7.974 5.502 9.57 3.907l1.514-1.515c.559-.639.559-1.595 0-2.154z"/></g><defs><clipPath id="nclip0"><path d="M0 0h16v16H0z"/></clipPath></defs></svg><svg viewBox="0 0 117 139" id="icon-point" xmlns="http://www.w3.org/2000/svg"><g opacity=".6"><g filter="url(#ofilter0_f)"><path d="M107 129l-30.333-5H42l65 5z"/></g><g opacity=".4" filter="url(#ofilter1_f)"><path d="M11 123c0 2.761 20.819 5 46.5 5s46.5-2.239 46.5-5-20.819-5-46.5-5-46.5 2.239-46.5 5z"/></g></g><path d="M106 131.5L81.5 93h-28l52.5 38.5z"/><circle r="52.5" transform="matrix(-1 0 0 1 52.5 52.5)"/><path d="M57.231 68h-6.65l-1.925-4.865h-9.59L37.246 68h-6.51l10.395-24.78h5.81L57.231 68zm-10.22-9.66l-3.08-8.505-3.15 8.505h6.23zM67.47 68h-5.81V41.54h5.81V68z"/><defs><filter id="ofilter0_f" x="32" y="114" width="85" height="25" filterUnits="userSpaceOnUse" color-interpolation-filters="sRGB"><feFlood flood-opacity="0" result="BackgroundImageFix"/><feBlend in="SourceGraphic" in2="BackgroundImageFix" result="shape"/><feGaussianBlur stdDeviation="5" result="effect1_foregroundBlur"/></filter><filter id="ofilter1_f" x="1" y="108" width="113" height="30" filterUnits="userSpaceOnUse" color-interpolation-filters="sRGB"><feFlood flood-opacity="0" result="BackgroundImageFix"/><feBlend in="SourceGraphic" in2="BackgroundImageFix" result="shape"/><feGaussianBlur stdDeviation="5" result="effect1_foregroundBlur"/></filter></defs></svg><svg viewBox="0 0 30 30" id="icon-telegram" xmlns="http://www.w3.org/2000/svg"><circle cx="15" cy="15" r="14.75"/><g clip-path="url(#pclip0)"><path d="M12.278 18.12l-.264 3.723c.378 0 .542-.162.739-.358l1.775-1.696 3.679 2.694c.674.376 1.15.178 1.332-.62l2.414-11.316c.215-.997-.36-1.388-1.017-1.143L6.743 14.838c-.969.376-.954.916-.165 1.16l3.629 1.13 8.428-5.274c.397-.263.758-.118.461.145l-6.818 6.122z"/></g><defs><clipPath id="pclip0"><path transform="translate(6 8)" d="M0 0h16v16H0z"/></clipPath></defs></svg><svg viewBox="0 0 18 17" id="icon-user" xmlns="http://www.w3.org/2000/svg"><g clip-path="url(#qclip0)"><path d="M9 8.314c2.002 0 3.625-1.861 3.625-4.157C12.625 1.861 12.092 0 9 0S5.377 1.861 5.377 4.157c0 2.296 1.622 4.157 3.624 4.157zM2.156 14.663c0-.142-.001-.04 0 0zM15.845 14.772c.002-.039 0-.268 0 0zM15.838 14.493c-.067-3.999-.62-5.139-4.853-5.86 0 0-.595.717-1.984.717s-1.984-.717-1.984-.717c-4.187.714-4.773 1.836-4.85 5.73-.007.319-.01.335-.01.298v.42S3.164 17 9 17c5.836 0 6.844-1.918 6.844-1.918v-.311a2.447 2.447 0 01-.007-.278z"/></g><defs><clipPath id="qclip0"><path d="M0 0h18v17H0z"/></clipPath></defs></svg><svg viewBox="0 0 18 18" id="icon-user2" xmlns="http://www.w3.org/2000/svg"><g clip-path="url(#rclip0)"><path d="M9 8.803c2.002 0 3.625-1.97 3.625-4.401S12.092 0 9 0 5.377 1.97 5.377 4.402c0 2.43 1.622 4.401 3.624 4.401zM2.156 15.525c0-.15-.001-.042 0 0zM15.845 15.64c.002-.04 0-.283 0 0zM15.838 15.346c-.067-4.235-.62-5.441-4.853-6.205 0 0-.595.76-1.984.76s-1.984-.76-1.984-.76c-4.187.755-4.773 1.944-4.85 6.068-.007.336-.01.354-.01.315v.445S3.164 18 9 18c5.836 0 6.844-2.031 6.844-2.031v-.33a2.746 2.746 0 01-.007-.293z"/></g><defs><clipPath id="rclip0"><path d="M0 0h18v18H0z"/></clipPath></defs></svg><svg viewBox="0 0 30 30" id="icon-viber" xmlns="http://www.w3.org/2000/svg"><g clip-path="url(#sclip0)"><path d="M16.2 7h-3.4a5.957 5.957 0 00-5.95 5.951v2.55a5.953 5.953 0 003.4 5.378v2.84c0 .247.308.376.483.2l2.468-2.467h3c3.28 0 5.95-2.67 5.95-5.95V12.95c0-3.281-2.67-5.95-5.95-5.95z"/><path d="M11.1 20.879A5.953 5.953 0 017.7 15.5v-2.55c0-3.281 2.669-5.95 5.95-5.95h-.85a5.957 5.957 0 00-5.95 5.95v2.55a5.953 5.953 0 003.4 5.378v2.84c0 .247.308.376.483.2l.367-.366V20.88z"/><path d="M18.778 17.562l-.255-1.38a.283.283 0 00-.223-.226l-2.003-.401a.284.284 0 00-.256.077l-.815.815c-1.371-.615-2.132-1.378-2.802-2.808l.811-.812a.283.283 0 00.078-.256l-.4-2.003a.283.283 0 00-.227-.224l-1.38-.254a.282.282 0 00-.115.002 1.977 1.977 0 00-.961.531c-.459.458-.634 1.127-.507 1.934.213 1.355.877 3.24 2.102 4.47l.017.017c1.228 1.223 3.114 1.887 4.469 2.1.17.027.335.04.493.04.587 0 1.08-.185 1.44-.546.265-.265.45-.597.532-.962a.287.287 0 00.002-.114zM12.959 13.104l.277-.277-.277.277zM16.04 15.632l-.28.28.28-.28z"/><path d="M17.338 18.65c-.158 0-.322-.013-.493-.04-1.355-.213-3.24-.877-4.469-2.101l-.017-.017c-1.224-1.23-1.888-3.115-2.101-4.47-.103-.652-.008-1.213.274-1.646-.108.072-.21.154-.302.247-.459.458-.634 1.127-.507 1.934.213 1.355.877 3.24 2.102 4.47l.017.016c1.228 1.224 3.114 1.888 4.469 2.101.17.027.335.04.493.04.587 0 1.08-.185 1.44-.546a1.99 1.99 0 00.248-.302c-.32.208-.71.314-1.154.314zM15.067 11.818a.283.283 0 000 .566c.625 0 1.133.509 1.133 1.134 0 .154.129.283.283.283a.286.286 0 00.284-.283c0-.938-.763-1.7-1.7-1.7z"/><path d="M15.067 10.684c-.105 0-.21.006-.315.017a.284.284 0 00.063.564 2.27 2.27 0 012.505 2.505.286.286 0 00.25.313.286.286 0 00.313-.25 2.837 2.837 0 00-2.816-3.148z"/><path d="M15.067 9.55a4.04 4.04 0 00-.305.012.283.283 0 00.043.566 3.404 3.404 0 013.571 4.175.286.286 0 00.201.338.286.286 0 00.351-.208 3.972 3.972 0 00-3.861-4.882z"/></g><circle cx="15" cy="15" r="14.75"/><defs><clipPath id="sclip0"><path transform="translate(6 7)" d="M0 0h17v17H0z"/></clipPath></defs></svg><svg viewBox="0 0 30 30" id="icon-whatsapp" xmlns="http://www.w3.org/2000/svg"><circle cx="15" cy="15" r="14.75"/><g clip-path="url(#tclip0)"><path d="M14.996 7.006a7.995 7.995 0 00-6.73 12.31l-1.244 3.227a.333.333 0 00.423.434l3.332-1.19a7.995 7.995 0 104.219-14.781z"/><path d="M18.808 16.366s-.817-.4-1.328-.666c-.578-.298-1.258.26-1.577.577a4.007 4.007 0 01-1.338-.849 4.006 4.006 0 01-.848-1.337c.317-.32.873-1 .576-1.578-.263-.511-.666-1.327-.666-1.328a.333.333 0 00-.297-.183h-.666a2.007 2.007 0 00-1.666 1.999c0 1.046 1.252 3.056 2.096 3.9.844.845 2.854 2.096 3.9 2.096a2.008 2.008 0 002-1.665v-.666a.333.333 0 00-.186-.3z"/></g><defs><clipPath id="tclip0"><path transform="translate(7 7)" d="M0 0h16v16H0z"/></clipPath></defs></svg></svg>